# AST/ASF file generated using VICON BodyLanguage
# -----------------------------------------------
:version 1.10
:name VICON
:units
  mass 1.0
  length 0.45
  angle deg
:documentation
   .ast/.asf automatically generated from VICON data using
   VICON BodyBuilder and BodyLanguage model FoxedUp or BRILLIANT.MOD
:root
   order TX TY TZ RX RY RZ
   axis XYZ
   position 0 0 0  
   orientation 0 0 0 
:bonedata
  begin
     id 1 
     name lhipjoint
     direction 0.567149 -0.783011 0.255413 
     length 2.28399 
     axis 0 0 0  XYZ
  end
  begin
     id 2 
     name lfemur
     direction 0.34202 -0.939693 0  
     length 7.34031  
     axis 0 0 20  XYZ
    dof rx ry rz
    limits (-160.0 20.0)
           (-70.0 70.0)
           (-60.0 70.0)
  end
  begin
     id 3 
     name ltibia
     direction 0.34202 -0.939693 0   
     length 6.9833   
     axis 0 0 20   XYZ
    dof rx
    limits (-10.0 170.0)
  end
  begin
     id 4 
     name lfoot
     direction 0.136498 -0.375025 0.91691   
     length 2.33665   
     axis -90 7.62852e-016 20   XYZ
    dof rx rz
    limits (-45.0 90.0)
           (-70.0 20.0)
  end
  begin
     id 5 
     name ltoes
     direction 1.5367e-011 -4.21617e-011 1   
     length 1.15039   
     axis -90 7.62852e-016 20   XYZ
    dof rx
    limits (-90.0 20.0)
  end
  begin
     id 6 
     name rhipjoint
     direction -0.602854 -0.758518 0.247423   
     length 2.35775  
     axis 0 0 0  XYZ 
  end
  begin
     id 7 
     name rfemur
     direction -0.34202 -0.939693 0   
     length 7.43932   
     axis 0 0 -20   XYZ
    dof rx ry rz
    limits (-160.0 20.0)
           (-70.0 70.0)
           (-70.0 60.0)
  end
  begin
     id 8 
     name rtibia
     direction -0.34202 -0.939693 0   
     length 7.11893   
     axis 0 0 -20   XYZ
    dof rx
    limits (-10.0 170.0)
 end
 begin
     id 9 
     name rfoot
     direction -0.131771 -0.362037 0.922803   
     length 2.53019  
     axis -90 -7.62852e-016 -20   XYZ
    dof rx rz
    limits (-45.0 90.0)
           (-20.0 70.0)
  end
  begin
     id 10 
     name rtoes
     direction -1.53733e-011 -4.21932e-011 1   
     length 1.24596   
     axis -90 -7.62852e-016 -20   XYZ
    dof rx
    limits (-90.0 20.0)
  end
  begin
     id 11 
     name lowerback
     direction 0.0235427 0.999023 -0.0374125   
     length 2.21768   
     axis 0 0 0   XYZ
    dof rx ry rz
    limits (-20.0 45.0)
           (-30.0 30.0)
           (-30.0 30.0)
  end
  begin
     id 12 
     name upperback
     direction 0.0302156 0.996818 -0.073759   
     length 2.20352   
     axis 0 0 0   XYZ
    dof rx ry rz
    limits (-20.0 45.0)
           (-30.0 30.0)
           (-30.0 30.0)
  end
  begin
     id 13 
     name thorax
     direction 0.0187169 0.998235 -0.0563532   
     length 2.22103   
     axis 0 0 0   XYZ
    dof rx ry rz
    limits (-20.0 45.0)
           (-30.0 30.0)
           (-30.0 30.0)
  end
  begin
     id 14 
     name lowerneck
     direction -0.119528 0.987423 0.103481   
     length 1.72948   
     axis 0 0 0   XYZ
    dof rx ry rz
    limits (-20.0 45.0)
           (-30.0 30.0)
           (-30.0 30.0)
  end
  begin
     id 15 
     name upperneck
     direction 0.248049 0.963095 -0.104496   
     length 1.74979   
     axis 0 0 0   XYZ
    dof rx ry rz
    limits (-20.0 45.0)
           (-30.0 30.0)
           (-30.0 30.0)
  end
  begin
     id 16
     name head
     direction 0.0903589 0.994284 -0.056876  
     length 1.78268  
     axis 0 0 0   XYZ
    dof rx ry rz
    limits (-20.0 45.0)
           (-30.0 30.0)
           (-30.0 30.0)
  end
  begin
     id 17 
     name lclavicle
     direction 0.946008 0.242039 -0.215608  
     length 3.80783  
     axis 0 0 0   XYZ
    dof ry rz
    limits (-20.0 10.0)
           (0.0 20.0)
  end
  begin
     id 18 
     name lhumerus
     direction 1 -4.48991e-011 -2.25695e-027   
     length 4.83125   
     axis 180 -30 -90   XYZ
    dof rx ry rz
    limits (-60.0 90.0)
           (-90.0 90.0)
           (-90.0 90.0)
  end
  begin
     id 19
     name lradius
     direction 0.999991 0.00366712 -0.00211721   
     length 3.00391   
     axis 180 -30 -90   XYZ
    dof rx
    limits (-10.0 170.0)
  end
  begin
     id 20
     name lwrist
     direction 0.999991 0.00393016 -0.00141978   
     length 1.50195   
     axis -1.00488e-014 90 90   XYZ
    dof ry
    limits (-180.0 0.0)
 end
  begin
     id 21 
     name lhand
     direction 1 -4.49123e-011 2.72098e-026   
     length 1.2717   
     axis -1.73687e-014 90 90   XYZ
    dof rx rz
    limits (-90.0 90.0)
           (-45.0 45.0)
  end
  begin
     id 22 
     name lfingers
     direction 1 -4.48678e-011 5.4479e-026   
     length 1.02528   
     axis -3.47372e-014 90 90   XYZ
    dof rx
    limits (0.0 90.0)
  end
  begin
     id 23
     name lthumb
     direction 0.707107 -6.34851e-011 0.707107   
     length 1.4721   
     axis -90 45 -1.62303e-014   XYZ
    dof rx rz
    limits (-45.0 45.0)
           (-45.0 45.0)
  end
  begin
     id 24 
     name rclavicle
     direction -0.981723 0.189447 -0.0181673   
     length 3.74989  
     axis 0 0 0   XYZ 
    dof ry rz
    limits (-10.0 20.0)
           (-20.0 0.0)
  end
  begin
     id 25 
     name rhumerus
     direction -1 -4.48985e-011 2.38206e-027  
     length 4.61118   
     axis 180 30 90   XYZ
    dof rx ry rz
    limits (-90.0 60.0)
           (-90.0 90.0)
           (-90.0 90.0)
  end
  begin
     id 26 
     name rradius
     direction -1 -4.48977e-011 7.41019e-027   
     length 2.91491   
     axis 180 30 90   XYZ
    dof rx
    limits (-10.0 170.0)
  end
  begin
     id 27 
     name rwrist
     direction -1 -4.48549e-011 1.3624e-026   
     length 1.45745   
     axis -1.00488e-014 -90 -90   XYZ
    dof ry
    limits (-180.0 0.0)
  end
  begin
     id 28
     name rhand
     direction -1 -4.49107e-011 2.72109e-026   
     length 1.30769   
     axis -1.73687e-014 -90 -90   XYZ
    dof rx rz
    limits (-90.0 90.0)
           (-45.0 45.0)
  end
  begin
     id 29
     name rfingers
     direction -1 -4.48919e-011 5.44468e-026   
     length 1.05429   
     axis -3.47372e-014 -90 -90   XYZ
    dof rx
    limits (0.0 90.0)
  end
  begin
     id 30
     name rthumb
     direction -0.707107 -6.35315e-011 0.707107   
     length 1.51376   
     axis -90 -45 1.62303e-014   XYZ
    dof rx rz
    limits (-45.0 45.0)
           (-45.0 45.0)
  end
:hierarchy
  begin
    root lhipjoint rhipjoint lowerback
    lhipjoint lfemur
    lfemur ltibia
    ltibia lfoot
    lfoot ltoes
    rhipjoint rfemur
    rfemur rtibia
    rtibia rfoot
    rfoot rtoes
    lowerback upperback
    upperback thorax
    thorax lowerneck lclavicle rclavicle
    lowerneck upperneck
    upperneck head
    lclavicle lhumerus
    lhumerus lradius
    lradius lwrist
    lwrist lhand lthumb
    lhand lfingers
    rclavicle rhumerus
    rhumerus rradius
    rradius rwrist
    rwrist rhand rthumb
    rhand rfingers
  end

#!OML:ASF X:\für Bonn\!DataBase\2005_08_11_Bastian_Final\c3d\Bastian.ASF
:FULLY-SPECIFIED
:DEGREES
1
root 5.19708 17.2839 -4.18609 248.435 87.4513 -96.5087
lowerback 12.3902 0.0490239 -2.65014
upperback 10.8888 0.531511 -0.478198
thorax 4.53142 0.40521 0.963026
lowerneck 0.229418 -7.85455 -8.55601
upperneck 5.75969 -11.2846 17.5154
head 3.15889 -5.32469 6.34946
rclavicle 3.97569e-015 1.51076e-014
rhumerus -29.3868 7.15115 -85.7419
rradius 36.9247
rwrist -3.08715
rhand -25.6088 -1.6934
rfingers 7.12502
rthumb 0.923548 -31.6711
lclavicle 3.97569e-015 1.51076e-014
lhumerus -15.5038 -10.3134 83.5213
lradius 24.8461
lwrist 20.7222
lhand -15.5999 -7.26093
lfingers 7.12502
lthumb 10.5861 22.4525
rfemur -11.4516 -6.26408 21.1897
rtibia 68.2688
rfoot -9.33307 -0.391571
rtoes -8.22638
lfemur -2.71445 6.18211 -18.8908
ltibia 28.0444
lfoot -2.35707 -6.42233
ltoes -6.54428
2
root 5.28893 17.294 -4.18958 246.372 87.4301 -98.6738
lowerback 12.356 -0.0173356 -2.78243
upperback 10.9536 0.439532 -0.438528
thorax 4.62475 0.349369 1.08696
lowerneck 0.15262 -7.85431 -8.43168
upperneck 5.85389 -11.2849 17.3682
head 3.18387 -5.31916 6.27847
rclavicle -1.59028e-015 -1.11319e-014
rhumerus -29.1913 7.25798 -85.6276
rradius 36.9146
rwrist -3.22964
rhand -25.4772 -1.75948
rfingers 7.12502
rthumb 1.05064 -31.7366
lclavicle -1.59028e-015 -1.11319e-014
lhumerus -14.9261 -10.8813 83.4237
lradius 25.9369
lwrist 21.3774
lhand -15.6831 -7.51409
lfingers 7.12502
lthumb 10.5059 22.2034
rfemur -12.0627 -5.90795 21.2823
rtibia 66.8398
rfoot -10.055 -0.42709
rtoes -8.81656
lfemur -2.50412 6.1958 -18.8766
ltibia 28.1058
lfoot -2.66798 -6.58829
ltoes -6.06951
3
root 5.37945 17.3018 -4.19351 244.809 87.3939 -100.333
lowerback 12.3385 -0.079836 -2.86847
upperback 11.0225 0.357067 -0.408023
thorax 4.71367 0.301819 1.1744
lowerneck 0.0598391 -7.86773 -8.25901
upperneck 5.94776 -11.3015 17.1835
head 3.20876 -5.32092 6.18605
rclavicle 7.95139e-015 2.54444e-014
rhumerus -28.9666 7.32108 -85.5333
rradius 36.8772
rwrist -3.35111
rhand -25.4066 -1.84021
rfingers 7.12502
rthumb 1.11882 -31.817
lclavicle 7.95139e-015 2.54444e-014
lhumerus -14.3507 -11.3072 83.2814
lradius 27.0345
lwrist 21.889
lhand -15.6542 -7.73607
lfingers 7.12502
lthumb 10.5338 21.98
rfemur -12.6057 -5.54026 21.3649
rtibia 65.3319
rfoot -10.6605 -0.394981
rtoes -8.52785
lfemur -2.27598 6.28712 -18.8348
ltibia 28.1305
lfoot -2.94725 -6.79774
ltoes -6.13579
4
root 5.46891 17.3105 -4.19638 243.174 87.3759 -102.062
lowerback 12.3379 -0.138824 -2.98411
upperback 11.0715 0.274746 -0.389671
thorax 4.7724 0.252756 1.26528
lowerneck 0.0991968 -7.86439 -8.00362
upperneck 5.91952 -11.2821 16.9533
head 3.16318 -5.31537 6.0751
rclavicle 4.17448e-015 1.11319e-014
rhumerus -28.8268 7.41983 -85.463
rradius 36.9132
rwrist -3.47853
rhand -25.304 -1.92445
rfingers 7.12502
rthumb 1.21794 -31.9007
lclavicle 4.17448e-015 1.11319e-014
lhumerus -13.825 -11.6749 83.1228
lradius 28.1474
lwrist 22.4662
lhand -15.6591 -8.03256
lfingers 7.12502
lthumb 10.5291 21.6837
rfemur -13.0861 -5.13435 21.422
rtibia 63.7699
rfoot -11.1359 -0.34989
rtoes -8.272
lfemur -2.0477 6.34472 -18.8174
ltibia 28.1426
lfoot -3.20021 -6.94929
ltoes -5.88337
5
root 5.55616 17.318 -4.19926 241.529 87.378 -103.781
lowerback 12.3657 -0.186049 -3.10785
upperback 11.1396 0.20979 -0.379401
thorax 4.83675 0.213032 1.35083
lowerneck 0.0558512 -7.87289 -7.79574
upperneck 5.95314 -11.2876 16.7903
head 3.15983 -5.31467 5.98756
rclavicle 8.74653e-015 7.95139e-015
rhumerus -28.6304 7.48562 -85.3839
rradius 36.9117
rwrist -3.60886
rhand -25.2407 -1.99535
rfingers 7.12502
rthumb 1.27908 -31.9713
lclavicle 8.74653e-015 7.95139e-015
lhumerus -13.2803 -11.9985 82.9995
lradius 29.255
lwrist 23.0364
lhand -15.7322 -8.41302
lfingers 7.12502
lthumb 10.4585 21.3068
rfemur -13.5184 -4.73511 21.4445
rtibia 62.1726
rfoot -11.4505 -0.245052
rtoes -8.30122
lfemur -1.80275 6.42126 -18.8175
ltibia 28.1603
lfoot -3.49223 -7.12922
ltoes -5.96751
6
root 5.64145 17.3244 -4.20132 239.65 87.4034 -105.743
lowerback 12.3913 -0.231809 -3.26351
upperback 11.2073 0.144937 -0.386264
thorax 4.90287 0.171855 1.43623
lowerneck -0.00792581 -7.86669 -7.63824
upperneck 6.02757 -11.2835 16.7487
head 3.1807 -5.3036 5.94587
rclavicle 2.78299e-015 1.43125e-014
rhumerus -28.4345 7.55934 -85.3308
rradius 36.8823
rwrist -3.64158
rhand -25.2271 -2.04857
rfingers 7.12502
rthumb 1.29228 -32.0244
lclavicle 2.78299e-015 1.43125e-014
lhumerus -12.7569 -12.3621 82.8338
lradius 30.3764
lwrist 23.7031
lhand -15.7273 -8.90073
lfingers 7.12502
lthumb 10.4633 20.8189
rfemur -13.8959 -4.35284 21.4364
rtibia 60.5287
rfoot -11.6698 -0.164216
rtoes -8.82365
lfemur -1.58511 6.42395 -18.857
ltibia 28.201
lfoot -3.72563 -7.23645
ltoes -5.46245
7
root 5.72566 17.3261 -4.20373 238.016 87.4385 -107.396
lowerback 12.4972 -0.277735 -3.40662
upperback 11.2821 0.0800667 -0.391178
thorax 4.93379 0.132744 1.51652
lowerneck -0.0583242 -7.8407 -7.51894
upperneck 6.10524 -11.2532 16.7069
head 3.19903 -5.28107 5.91264
rclavicle 6.95746e-015 5.56597e-015
rhumerus -28.2708 7.68459 -85.2794
rradius 36.8999
rwrist -3.70998
rhand -25.2658 -2.09845
rfingers 7.12502
rthumb 1.25484 -32.0745
lclavicle 6.95746e-015 5.56597e-015
lhumerus -12.2702 -12.6132 82.704
lradius 31.4619
lwrist 24.2459
lhand -15.7087 -9.23538
lfingers 7.12502
lthumb 10.4812 20.4833
rfemur -14.1478 -3.96324 21.3984
rtibia 58.8272
rfoot -11.8655 -0.0679714
rtoes -9.24546
lfemur -1.3244 6.49336 -18.8892
ltibia 28.2824
lfoot -3.99208 -7.3782
ltoes -5.52956
